<?xml version="1.0" encoding="utf-8"?>
<!-- Generator: Adobe Illustrator 27.3.0, SVG Export Plug-In . SVG Version: 6.00 Build 0)  -->
<svg version="1.1" id="Layer_1" xmlns="http://www.w3.org/2000/svg" xmlns:xlink="http://www.w3.org/1999/xlink" x="0px" y="0px"
	 viewBox="0 0 133.84 67.41" style="enable-background:new 0 0 133.84 67.41;" xml:space="preserve">
<style type="text/css">
	.st0{fill:#FFFFFF;}
	.st1{fill:#211D1E;}
	.st2{fill:#FDCE2A;}
	.st3{fill:#383535;}
	.st4{fill-rule:evenodd;clip-rule:evenodd;fill:#D6CB75;}
	.st5{fill-rule:evenodd;clip-rule:evenodd;fill:#AB985D;}
	.st6{fill-rule:evenodd;clip-rule:evenodd;fill:#00A959;}
	.st7{fill-rule:evenodd;clip-rule:evenodd;fill:#037F4C;}
	.st8{fill:#0A557F;}
</style>
<g>
	<path class="st3" d="M81.79,16.94v-0.01c0-1.47,1.12-2.71,2.7-2.71c0.91,0,1.47,0.25,2.01,0.71l-0.58,0.7
		c-0.4-0.34-0.8-0.56-1.47-0.56c-0.96,0-1.7,0.85-1.7,1.85v0.01c0,1.08,0.71,1.87,1.78,1.87c0.49,0,0.94-0.16,1.26-0.4v-0.98h-1.34
		v-0.8h2.23v2.2c-0.52,0.44-1.26,0.82-2.18,0.82C82.87,19.63,81.79,18.46,81.79,16.94z"/>
	<polygon class="st3" points="89.61,14.3 93.49,14.3 93.49,15.13 90.53,15.13 90.53,16.49 93.16,16.49 93.16,17.31 90.53,17.31 
		90.53,18.72 93.53,18.72 93.53,19.54 89.61,19.54 	"/>
	<polygon class="st3" points="96.35,14.3 97.2,14.3 100.01,17.92 100.01,14.3 100.91,14.3 100.91,19.54 100.14,19.54 97.26,15.81 
		97.26,19.54 96.35,19.54 	"/>
	<path class="st3" d="M103.99,14.3h3.88v0.82h-2.96v1.36h2.62v0.82h-2.62v1.41h3v0.82h-3.92V14.3z M106.41,12.78l0.82,0.36
		l-0.96,0.73h-0.7L106.41,12.78z"/>
	<polygon class="st3" points="112.01,15.16 110.35,15.16 110.35,14.3 114.6,14.3 114.6,15.16 112.94,15.16 112.94,19.54 
		112.01,19.54 	"/>
	<rect x="117.35" y="14.3" class="st3" width="0.92" height="5.23"/>
	<path class="st3" d="M121.16,16.94v-0.01c0-1.49,1.11-2.71,2.7-2.71c0.96,0,1.55,0.34,2.05,0.82l-0.59,0.68
		c-0.42-0.39-0.87-0.65-1.47-0.65c-0.99,0-1.73,0.82-1.73,1.85v0.01c0,1.02,0.73,1.85,1.73,1.85c0.64,0,1.05-0.25,1.5-0.67l0.59,0.6
		c-0.55,0.57-1.14,0.93-2.12,0.93C122.3,19.63,121.16,18.44,121.16,16.94z"/>
	<path class="st3" d="M130.49,14.27h0.85l2.3,5.27h-0.97l-0.53-1.26h-2.48l-0.54,1.26h-0.94L130.49,14.27z M131.81,17.46l-0.9-2.09
		l-0.9,2.09H131.81z"/>
	<path class="st3" d="M60.26,50.96c-2.01,0-3.9-0.11-5.63-0.39c-1.73-0.22-3.35-0.61-4.96-1.12l1.28-6.3
		c0.78,0.28,1.56,0.5,2.4,0.78c0.89,0.22,1.73,0.45,2.62,0.61c0.84,0.17,1.73,0.28,2.62,0.33c0.84,0.11,1.67,0.17,2.51,0.17
		c1.45,0,2.68-0.11,3.68-0.39c1.06-0.28,1.9-0.61,2.57-1.12c0.67-0.45,1.12-0.95,1.45-1.56c0.28-0.56,0.45-1.23,0.45-1.84
		c0-0.78-0.22-1.45-0.61-2.01c-0.39-0.56-0.95-1.06-1.62-1.51c-0.67-0.45-1.45-0.89-2.34-1.28c-0.84-0.39-1.73-0.78-2.62-1.23
		c-0.89-0.45-1.78-0.89-2.62-1.39c-0.89-0.5-1.62-1.06-2.34-1.78c-0.67-0.67-1.23-1.45-1.62-2.34c-0.39-0.89-0.61-1.95-0.61-3.18
		c0-1.45,0.33-2.84,0.89-4.18c0.61-1.39,1.56-2.57,2.84-3.63c1.23-1.06,2.84-1.9,4.8-2.51s4.29-0.95,6.97-0.95
		c0.78,0,1.56,0,2.34,0.11c0.84,0.06,1.56,0.11,2.34,0.22c0.78,0.11,1.45,0.22,2.12,0.33c0.67,0.17,1.28,0.28,1.84,0.45l-1.17,5.91
		c-0.5-0.17-1.12-0.33-1.78-0.5c-0.67-0.17-1.34-0.28-2.06-0.39c-0.73-0.17-1.45-0.22-2.18-0.28c-0.73-0.11-1.39-0.11-2.06-0.11
		c-1.28,0-2.4,0.11-3.35,0.33c-0.89,0.22-1.67,0.56-2.29,0.95c-0.56,0.39-1,0.84-1.28,1.39c-0.28,0.5-0.45,1.06-0.45,1.67
		c0,0.67,0.22,1.28,0.61,1.78c0.45,0.56,1,1,1.67,1.45c0.67,0.45,1.45,0.84,2.29,1.28c0.89,0.39,1.78,0.78,2.68,1.23
		c0.89,0.45,1.78,0.95,2.68,1.45c0.84,0.56,1.62,1.17,2.29,1.84c0.67,0.73,1.23,1.51,1.67,2.45c0.39,0.89,0.61,1.95,0.61,3.18
		c0,1.84-0.39,3.46-1.17,4.96c-0.78,1.51-1.9,2.73-3.35,3.79c-1.45,1.06-3.18,1.9-5.24,2.45S62.77,50.96,60.26,50.96z"/>
	<path class="st3" d="M90.24,50.96c-1.73,0-3.29-0.22-4.63-0.67c-1.39-0.39-2.57-1.06-3.51-1.9c-1-0.89-1.73-1.95-2.29-3.29
		c-0.5-1.28-0.78-2.84-0.78-4.63c0-1.56,0.17-3.12,0.5-4.63s0.84-2.96,1.45-4.29c0.67-1.39,1.45-2.68,2.4-3.79
		c0.95-1.17,2.01-2.18,3.23-3.01c1.23-0.84,2.57-1.51,4.07-1.95c1.45-0.5,3.07-0.73,4.8-0.73c1.73,0,3.23,0.22,4.63,0.61
		c1.39,0.45,2.57,1.12,3.57,1.95c0.95,0.89,1.67,1.95,2.23,3.29c0.5,1.28,0.78,2.84,0.78,4.63c0,1.56-0.17,3.07-0.5,4.63
		c-0.33,1.51-0.84,2.96-1.45,4.29c-0.61,1.34-1.45,2.62-2.4,3.79c-0.89,1.17-2.01,2.18-3.23,3.01c-1.17,0.84-2.57,1.51-4.02,1.95
		C93.59,50.74,91.97,50.96,90.24,50.96z M99.73,33.22c0-1.84-0.45-3.18-1.34-4.07c-0.84-0.89-2.12-1.34-3.79-1.34
		c-0.95,0-1.84,0.17-2.68,0.56c-0.78,0.39-1.51,0.84-2.12,1.51c-0.67,0.61-1.23,1.28-1.67,2.12c-0.5,0.84-0.89,1.67-1.17,2.57
		c-0.33,0.89-0.56,1.78-0.73,2.68C86.06,38.13,86,38.97,86,39.81c0,1.78,0.45,3.12,1.34,4.07c0.89,0.89,2.18,1.34,3.79,1.34
		c1,0,1.9-0.17,2.68-0.56c0.78-0.39,1.51-0.89,2.18-1.51c0.61-0.61,1.17-1.34,1.62-2.18c0.5-0.78,0.89-1.62,1.17-2.51
		c0.33-0.89,0.56-1.78,0.73-2.73C99.67,34.84,99.73,34.01,99.73,33.22z"/>
	<path class="st3" d="M133.84,22.68c-0.17,1.17-0.33,2.34-0.56,3.46c-0.22,1.12-0.5,2.23-0.84,3.4c-0.33,1.12-0.78,2.29-1.28,3.51
		c-0.45,1.17-1.06,2.45-1.78,3.79c-0.73,1.34-1.51,2.73-2.45,4.24c-0.95,1.51-2.01,3.12-3.23,4.91c-1.56,2.23-3.01,4.13-4.35,5.8
		c-1.28,1.67-2.57,3.07-3.74,4.24c-1.12,1.17-2.23,2.12-3.23,2.84c-1,0.78-2.01,1.39-2.96,1.78c-1,0.45-1.9,0.73-2.84,0.89
		c-0.89,0.17-1.84,0.22-2.79,0.22c-0.67,0-1.28,0-1.78-0.06c-0.5-0.06-0.95-0.11-1.34-0.17v-5.63c0.5,0.11,1.06,0.17,1.62,0.22
		c0.61,0.06,1.17,0.06,1.73,0.06c0.78,0,1.45-0.11,2.12-0.28c0.61-0.17,1.28-0.5,1.95-0.95c0.67-0.45,1.34-1.06,2.06-1.78
		c0.73-0.78,1.56-1.73,2.45-2.84l-5.47-27.66h6.92l3.9,21.42c1.06-1.62,2.06-3.12,2.9-4.52c0.84-1.34,1.56-2.62,2.18-3.79
		c0.61-1.23,1.17-2.34,1.62-3.4c0.39-1.12,0.78-2.18,1.06-3.23c0.28-1,0.5-2.06,0.67-3.12c0.17-1.06,0.28-2.18,0.39-3.35H133.84z"/>
	<path class="st3" d="M47.21,59.95l0.5-0.59c0.45,0.39,0.91,0.61,1.48,0.61c0.51,0,0.83-0.24,0.83-0.59v-0.01
		c0-0.34-0.19-0.52-1.06-0.72c-1-0.24-1.56-0.54-1.56-1.4v-0.01c0-0.8,0.67-1.36,1.6-1.36c0.68,0,1.23,0.21,1.7,0.59l-0.44,0.62
		c-0.42-0.32-0.84-0.48-1.27-0.48c-0.48,0-0.76,0.25-0.76,0.56v0.01c0,0.36,0.21,0.52,1.12,0.74c0.99,0.24,1.5,0.6,1.5,1.37v0.01
		c0,0.88-0.69,1.4-1.68,1.4C48.45,60.7,47.77,60.45,47.21,59.95z"/>
	<path class="st3" d="M51.17,58.88v-0.01c0-1.01,0.8-1.85,1.89-1.85c1.09,0,1.88,0.82,1.88,1.84v0.01c0,1.01-0.8,1.84-1.9,1.84
		C51.97,60.72,51.17,59.89,51.17,58.88z M54.13,58.88v-0.01c0-0.62-0.45-1.14-1.09-1.14c-0.65,0-1.07,0.51-1.07,1.13v0.01
		c0,0.62,0.45,1.13,1.08,1.13C53.72,60,54.13,59.5,54.13,58.88z"/>
	<rect x="55.46" y="55.74" class="st3" width="0.81" height="4.89"/>
	<path class="st3" d="M56.93,59.35v-2.25h0.81v2.01c0,0.55,0.27,0.86,0.76,0.86c0.47,0,0.8-0.32,0.8-0.87v-2h0.82v3.54H59.3v-0.55
		c-0.23,0.34-0.56,0.62-1.11,0.62C57.4,60.71,56.93,60.17,56.93,59.35z"/>
	<path class="st3" d="M61.4,61.45l0.54-0.79c-0.81-0.2-1.36-0.92-1.36-1.77v-0.01c0-1.01,0.78-1.85,1.84-1.85
		c0.66,0,1.08,0.25,1.41,0.61l-0.51,0.54c-0.25-0.26-0.51-0.44-0.91-0.44c-0.59,0-1.03,0.51-1.03,1.13v0.01
		c0,0.63,0.44,1.13,1.06,1.13c0.38,0,0.66-0.17,0.92-0.44l0.49,0.48c-0.32,0.36-0.7,0.62-1.3,0.66l-0.44,1.04L61.4,61.45z"/>
	<path class="st3" d="M64.01,59.62V59.6c0-0.76,0.6-1.14,1.46-1.14c0.4,0,0.68,0.06,0.95,0.15v-0.09c0-0.5-0.31-0.77-0.88-0.77
		c-0.4,0-0.69,0.09-1.01,0.22l-0.21-0.64c0.39-0.17,0.77-0.29,1.33-0.29c0.53,0,0.93,0.14,1.17,0.4c0.26,0.25,0.38,0.63,0.38,1.09
		v2.1h-0.79v-0.44c-0.24,0.29-0.61,0.52-1.15,0.52C64.6,60.71,64.01,60.33,64.01,59.62z M65.7,56.5c-0.15-0.07-0.29-0.13-0.4-0.13
		c-0.19,0-0.27,0.11-0.37,0.34l-0.45-0.14c0.15-0.54,0.34-0.83,0.75-0.83c0.2,0,0.4,0.07,0.56,0.14c0.15,0.07,0.3,0.13,0.4,0.13
		c0.19,0,0.27-0.11,0.37-0.34l0.45,0.13c-0.15,0.54-0.34,0.84-0.75,0.84C66.06,56.65,65.86,56.57,65.7,56.5z M66.44,59.36v-0.24
		c-0.21-0.08-0.48-0.14-0.8-0.14c-0.52,0-0.83,0.22-0.83,0.59v0.01c0,0.34,0.3,0.54,0.69,0.54C66.03,60.12,66.44,59.81,66.44,59.36z
		"/>
	<path class="st3" d="M67.63,58.88v-0.01c0-1.01,0.8-1.85,1.89-1.85c1.09,0,1.88,0.82,1.88,1.84v0.01c0,1.01-0.8,1.84-1.9,1.84
		C68.43,60.72,67.63,59.89,67.63,58.88z M70.6,58.88v-0.01c0-0.62-0.45-1.14-1.09-1.14c-0.65,0-1.07,0.51-1.07,1.13v0.01
		c0,0.62,0.45,1.13,1.08,1.13C70.18,60,70.6,59.5,70.6,58.88z"/>
	<polygon class="st3" points="75.13,56.71 73.65,56.71 73.65,55.94 77.45,55.94 77.45,56.71 75.97,56.71 75.97,60.64 75.13,60.64 	
		"/>
	<path class="st3" d="M77.39,57.09h0.81v0.8c0.22-0.53,0.63-0.89,1.25-0.86v0.86h-0.05c-0.71,0-1.21,0.46-1.21,1.4v1.35h-0.81V57.09
		z"/>
	<path class="st3" d="M79.49,58.88v-0.01c0-1.01,0.8-1.85,1.89-1.85s1.88,0.82,1.88,1.84v0.01c0,1.01-0.8,1.84-1.9,1.84
		C80.29,60.72,79.49,59.89,79.49,58.88z M82.45,58.88v-0.01c0-0.62-0.45-1.14-1.09-1.14c-0.65,0-1.07,0.51-1.07,1.13v0.01
		c0,0.62,0.45,1.13,1.08,1.13C82.04,60,82.45,59.5,82.45,58.88z"/>
	<path class="st3" d="M83.73,57.09h0.81v0.59c0.26-0.37,0.63-0.66,1.21-0.66c0.83,0,1.64,0.66,1.64,1.84v0.01
		c0,1.17-0.8,1.84-1.64,1.84c-0.59,0-0.96-0.3-1.21-0.62v1.62h-0.81V57.09z M86.57,58.87v-0.01c0-0.68-0.46-1.13-1.01-1.13
		s-1.03,0.46-1.03,1.13v0.01c0,0.68,0.48,1.13,1.03,1.13C86.11,60,86.57,59.57,86.57,58.87z"/>
	<path class="st3" d="M87.89,55.78h0.87v0.77h-0.87V55.78z M87.92,57.09h0.81v3.54h-0.81V57.09z"/>
	<path class="st3" d="M89.24,58.88v-0.01c0-1.01,0.78-1.85,1.84-1.85c0.66,0,1.08,0.25,1.41,0.61l-0.51,0.54
		c-0.25-0.26-0.51-0.44-0.91-0.44c-0.59,0-1.03,0.51-1.03,1.13v0.01c0,0.63,0.44,1.13,1.06,1.13c0.38,0,0.66-0.17,0.92-0.44
		l0.49,0.48c-0.35,0.39-0.76,0.66-1.45,0.66C90.02,60.72,89.24,59.89,89.24,58.88z"/>
	<path class="st3" d="M92.68,59.62V59.6c0-0.76,0.6-1.14,1.46-1.14c0.4,0,0.68,0.06,0.95,0.15v-0.09c0-0.5-0.31-0.77-0.88-0.77
		c-0.4,0-0.69,0.09-1.01,0.22l-0.21-0.64c0.39-0.17,0.77-0.29,1.33-0.29c0.53,0,0.93,0.14,1.17,0.4c0.26,0.25,0.38,0.63,0.38,1.09
		v2.1h-0.79v-0.44c-0.24,0.29-0.61,0.52-1.15,0.52C93.27,60.71,92.68,60.33,92.68,59.62z M95.1,59.36v-0.24
		c-0.21-0.08-0.48-0.14-0.8-0.14c-0.52,0-0.83,0.22-0.83,0.59v0.01c0,0.34,0.3,0.54,0.69,0.54C94.69,60.12,95.1,59.81,95.1,59.36z"
		/>
	<rect x="96.54" y="55.74" class="st3" width="0.81" height="4.89"/>
	<path class="st4" d="M20.86,34.5c4.56,0,8.25,3.84,8.25,8.57c0,4.73-3.7,8.57-8.25,8.57c-4.56,0-8.25-3.84-8.25-8.57
		C12.61,38.33,16.3,34.5,20.86,34.5"/>
	<path class="st5" d="M19.42,51.51c-3.87-0.71-6.82-4.22-6.82-8.44c0-0.79,0.1-1.56,0.3-2.28c1.04-2.24,2.94-3.9,5.19-4.6
		c-1.91,1.26-3.33,3.32-3.78,5.8C13.57,46.13,15.8,50.09,19.42,51.51 M20.93,34.5c4.53,0.04,8.19,3.86,8.19,8.57
		c0,0.11,0,0.22-0.01,0.32c-0.61,3.3-2.96,5.83-5.87,6.74c1.91-1.26,3.33-3.32,3.78-5.8C27.82,39.82,25.12,35.54,20.93,34.5z"/>
	<path class="st6" d="M18.55,0c0,0,1.29,6.7,4.65,10.85c12.4,15.32,26.38,32.64,11.5,51.87c-6.37,8.23-3.64,3.07-3.64,3.07
		s3.39-7.77,3.69-15.1c0.6-14.67-11.35-22.65-17.49-32.72C13.95,12.55,13.41,6.41,18.55,0"/>
	<path class="st7" d="M18.55,0.01c0.04,0.22,1.35,6.76,4.65,10.84c12.4,15.32,26.38,32.64,11.5,51.87
		c-0.55,0.71-1.04,1.33-1.46,1.85c0.25-0.74,0.58-1.64,0.98-2.73c3.63-9.73,3.3-12.81,2.9-18.23c-0.4-5.42-5.76-15.19-12.14-22.38
		c-6.38-7.2-8.84-11-8.34-15.15C16.95,3.54,17.88,1.33,18.55,0.01"/>
	<path class="st5" d="M12.4,19.94c0,0-11.13,8-12.23,20.96c-1.1,12.96,3.51,16.43,5.48,19.48c1.97,3.04,3.94,6.09,3.84,6.89
		c-0.1,0.81,4.8-1.99,4.79-6.78c-0.01-4.79-4.02-4.46-6.12-15.11C6.06,34.72,9.76,28.27,12.4,19.94"/>
	<path class="st4" d="M12.29,20.02C11.14,20.89,1.2,28.7,0.17,40.9c-1.1,12.96,3.51,16.43,5.48,19.48c1.83,2.83,3.66,5.65,3.83,6.69
		c0.31-0.47,0.6-1.03,0.82-1.68c0.91-2.69,1.96-3.62-1.66-8.5C5.02,52.01,2.55,45.4,4.41,36.74C6.23,28.26,8.16,26.41,12.29,20.02"
		/>
</g>
</svg>
